<?xml version="1.0" encoding="UTF-8" standalone="no"?>
<!DOCTYPE svg PUBLIC "-//W3C//DTD SVG 1.1//EN" "http://www.w3.org/Graphics/SVG/1.1/DTD/svg11.dtd">
<svg width="100%" height="100%" viewBox="0 0 450 450" version="1.1" xmlns="http://www.w3.org/2000/svg" xmlns:xlink="http://www.w3.org/1999/xlink" xml:space="preserve" xmlns:serif="http://www.serif.com/" style="fill-rule:evenodd;clip-rule:evenodd;">
    <g transform="matrix(1.35635,0,0,1.35635,-46.1298,-107.127)">
        <circle cx="80" cy="100.816" r="14.4" style="fill:none;stroke:black;stroke-width:4.2px;"/>
    </g>
    <g transform="matrix(1.35635,0,0,1.35635,-46.1298,-107.127)">
        <circle cx="224" cy="100.816" r="14.4" style="fill:none;stroke:black;stroke-width:4.2px;"/>
    </g>
    <g transform="matrix(1.35635,0,0,1.35635,-46.1298,-107.127)">
        <circle cx="272" cy="100.816" r="14.4" style="fill:none;stroke:black;stroke-width:4.2px;"/>
    </g>
    <g transform="matrix(1.35635,0,0,1.35635,-46.1298,-107.127)">
        <circle cx="320" cy="100.816" r="14.4" style="fill:none;stroke:black;stroke-width:4.2px;"/>
    </g>
    <g transform="matrix(1.35635,0,0,1.35635,-46.1298,-107.127)">
        <path d="M77.9,129.816L322.1,129.816" style="fill:none;fill-rule:nonzero;stroke:black;stroke-width:10px;"/>
    </g>
    <g transform="matrix(1.35635,0,0,1.35635,-46.1298,-107.127)">
        <path d="M80,202.016L320,202.016" style="fill:none;fill-rule:nonzero;stroke:black;stroke-width:4.2px;"/>
    </g>
    <g transform="matrix(1.35635,0,0,1.35635,-46.1298,-107.127)">
        <path d="M80,269.216L320,269.216" style="fill:none;fill-rule:nonzero;stroke:black;stroke-width:4.2px;"/>
    </g>
    <g transform="matrix(1.35635,0,0,1.35635,-46.1298,-107.127)">
        <path d="M80,336.416L320,336.416" style="fill:none;fill-rule:nonzero;stroke:black;stroke-width:4.2px;"/>
    </g>
    <g transform="matrix(1.35635,0,0,1.35635,-46.1298,-107.127)">
        <path d="M80,403.616L320,403.616" style="fill:none;fill-rule:nonzero;stroke:black;stroke-width:4.2px;"/>
    </g>
    <g transform="matrix(1.35635,0,0,1.35635,-46.1298,-107.127)">
        <path d="M80,134.816L80,405.716" style="fill:none;fill-rule:nonzero;stroke:black;stroke-width:4.2px;"/>
    </g>
    <g transform="matrix(1.35635,0,0,1.35635,-46.1298,-107.127)">
        <path d="M128,134.816L128,405.716" style="fill:none;fill-rule:nonzero;stroke:black;stroke-width:4.2px;"/>
    </g>
    <g transform="matrix(1.35635,0,0,1.35635,-46.1298,-107.127)">
        <path d="M176,134.816L176,405.716" style="fill:none;fill-rule:nonzero;stroke:black;stroke-width:4.2px;"/>
    </g>
    <g transform="matrix(1.35635,0,0,1.35635,-46.1298,-107.127)">
        <path d="M224,134.816L224,405.716" style="fill:none;fill-rule:nonzero;stroke:black;stroke-width:4.2px;"/>
    </g>
    <g transform="matrix(1.35635,0,0,1.35635,-46.1298,-107.127)">
        <path d="M272,134.816L272,405.716" style="fill:none;fill-rule:nonzero;stroke:black;stroke-width:4.2px;"/>
    </g>
    <g transform="matrix(1.35635,0,0,1.35635,-46.1298,-107.127)">
        <path d="M320,134.816L320,405.716" style="fill:none;fill-rule:nonzero;stroke:black;stroke-width:4.2px;"/>
    </g>
    <g transform="matrix(1.35635,0,0,1.35635,-46.1298,-107.127)">
        <circle cx="128" cy="235.616" r="19.68"/>
    </g>
    <g transform="matrix(1.35635,0,0,1.35635,-46.1298,-107.127)">
        <circle cx="176" cy="235.616" r="19.68"/>
    </g>
    <g id="Layer1">
    </g>
</svg>
