<svg xmlns="http://www.w3.org/2000/svg" xmlns:xlink="http://www.w3.org/1999/xlink" xmlns:lucid="lucid" width="762" height="362"><g transform="translate(-159.00000000000003 61)" lucid:page-tab-id="2akRC0QSF9T-"><path d="M160-54a6 6 0 0 1 6-6h308a6 6 0 0 1 6 6v348a6 6 0 0 1-6 6H166a6 6 0 0 1-6-6z" stroke="#3a414a" stroke-width="2" fill="#f2f3f5"/><use xlink:href="#a" transform="matrix(1,0,0,1,165.00000000000003,-55) translate(87.13333333333333 23)"/><use xlink:href="#b" transform="matrix(1,0,0,1,165.00000000000003,-55) translate(142.68888888888887 23)"/><path d="M180 6a6 6 0 0 1 6-6h268a6 6 0 0 1 6 6v268a6 6 0 0 1-6 6H186a6 6 0 0 1-6-6z" stroke="#3a414a" stroke-width="2" fill="#e8e2c8"/><use xlink:href="#c" transform="matrix(1,0,0,1,185,5) translate(53.18888888888888 23)"/><use xlink:href="#d" transform="matrix(1,0,0,1,185,5) translate(103.25555555555555 23)"/><use xlink:href="#e" transform="matrix(1,0,0,1,185,5) translate(191.18888888888887 23)"/><path d="M220 226a6 6 0 0 1 6-6h188a6 6 0 0 1 6 6v28a6 6 0 0 1-6 6H226a6 6 0 0 1-6-6z" stroke="#3a414a" stroke-width="2" fill="#fff0f0"/><use xlink:href="#f" transform="matrix(1,0,0,1,225,225) translate(59.955555555555556 23)"/><use xlink:href="#g" transform="matrix(1,0,0,1,225,225) translate(104.42222222222222 23)"/><path d="M600 106a6 6 0 0 1 6-6h308a6 6 0 0 1 6 6v188a6 6 0 0 1-6 6H606a6 6 0 0 1-6-6z" stroke="#3a414a" stroke-width="2" fill="#f2f3f5"/><use xlink:href="#h" transform="matrix(1,0,0,1,605,105) translate(75.95555555555555 23)"/><use xlink:href="#b" transform="matrix(1,0,0,1,605,105) translate(153.86666666666667 23)"/><path d="M620.5 166a6 6 0 0 1 6-6h267a6 6 0 0 1 6 6v108a6 6 0 0 1-6 6h-267a6 6 0 0 1-6-6z" stroke="#3a414a" stroke-width="2" fill="#fcfcca"/><use xlink:href="#i" transform="matrix(1,0,0,1,625.5013849868129,165) translate(94.55555555555556 23)"/><use xlink:href="#j" transform="matrix(1,0,0,1,625.5013849868129,165) translate(148.82222222222222 23)"/><path d="M422 240h158.5" stroke="#3a414a" stroke-width="2" stroke-linejoin="round" fill="none"/><path d="M422.03 240.97H421v-1.94h1.03z" stroke="#3a414a" stroke-width=".05" fill="#3a414a"/><path d="M595.76 240l-14.26 4.63v-9.26z" stroke="#3a414a" stroke-width="2" fill="#3a414a"/><path d="M650 226a6 6 0 0 1 6-6h208a6 6 0 0 1 6 6v28a6 6 0 0 1-6 6H656a6 6 0 0 1-6-6z" stroke="#3a414a" stroke-width="2" fill="#e3fae3"/><g><use xlink:href="#k" transform="matrix(1,0,0,1,655,225) translate(59.044444444444444 23)"/><use xlink:href="#l" transform="matrix(1,0,0,1,655,225) translate(125.33333333333334 23)"/></g><path d="M199.5 86a6 6 0 0 1 6-6h228a6 6 0 0 1 6 6v108a6 6 0 0 1-6 6h-228a6 6 0 0 1-6-6z" stroke="#3a414a" stroke-width="2" fill="#fcfcca"/><g><use xlink:href="#i" transform="matrix(1,0,0,1,204.49861501318708,85) translate(75.05555555555556 23)"/><use xlink:href="#m" transform="matrix(1,0,0,1,204.49861501318708,85) translate(129.32222222222222 23)"/></g><path d="M220 146a6 6 0 0 1 6-6h188a6 6 0 0 1 6 6v28a6 6 0 0 1-6 6H226a6 6 0 0 1-6-6z" stroke="#3a414a" stroke-width="2" fill="#e3fae3"/><g><use xlink:href="#k" transform="matrix(1,0,0,1,225,144.99999999999997) translate(49.044444444444444 23)"/><use xlink:href="#n" transform="matrix(1,0,0,1,225,144.99999999999997) translate(115.33333333333334 23)"/></g><defs><path d="M499 0H85v-700h83v626h331V0" id="o"/><path d="M268 12C112 12 51-93 49-250c-1-158 69-262 219-262 156 0 217 105 219 262 1 158-69 262-219 262zm136-262c0-105-32-190-136-192-91-2-136 63-136 192 0 105 33 189 136 192 91 2 136-63 136-192" id="p"/><path d="M281-58c46 1 86-17 111-36l26 61c-37 28-94 45-157 45C104 12 53-93 49-250c-5-188 108-294 299-254 22 5 42 12 60 21l-23 69c-29-16-66-28-111-28-95 0-142 64-142 192 0 110 39 189 149 192" id="q"/><path d="M422-354c0 120-19 253 8 356h-59l-21-70h-5C315-22 265 8 189 8 98 8 39-43 39-134c0-147 152-157 302-151 10-93 1-159-99-153-57 4-110 14-148 35l-25-60c48-30 118-45 194-45 108-1 159 51 159 154zM122-142c-2 47 40 81 89 80 67-1 109-32 130-79v-83c-95-3-214-10-219 82" id="r"/><path d="M189 12C123 10 86-25 86-100v-600h80v577c-10 72 59 74 108 54l9 63c-18 10-66 18-94 18" id="s"/><g id="a"><use transform="matrix(0.022222222222222223,0,0,0.022222222222222223,0,0)" xlink:href="#o"/><use transform="matrix(0.022222222222222223,0,0,0.022222222222222223,10.177777777777777,0)" xlink:href="#p"/><use transform="matrix(0.022222222222222223,0,0,0.022222222222222223,22.08888888888889,0)" xlink:href="#q"/><use transform="matrix(0.022222222222222223,0,0,0.022222222222222223,32.111111111111114,0)" xlink:href="#r"/><use transform="matrix(0.022222222222222223,0,0,0.022222222222222223,43.13333333333334,0)" xlink:href="#s"/></g><path d="M623 0c4-191-10-400 10-575h-5l-38 96-182 316h-25L190-480l-36-95h-5l14 104V0H85v-700h62l219 358c12 26 21 55 35 78l31-80 209-356h65V0h-83" id="t"/><path d="M314-512c131 0 164 78 164 210V0h-80v-285c1-91-15-157-107-157-66 0-134 50-134 109V0H77v-700h80v256h4c35-40 79-68 153-68" id="u"/><path d="M94-500h80V0H94v-500zm38-99c-31 0-55-23-55-53s24-56 55-56 58 26 58 56-28 53-58 53" id="v"/><path d="M313-512c130 0 165 79 165 210V0h-80v-285c-2-94-16-155-105-157-72-1-118 46-136 100V0H77v-500h56l15 61h4c32-42 86-73 161-73" id="w"/><path d="M293-58c43 0 98-19 119-40l30 58C404-9 338 12 270 12 112 10 51-92 49-250c-1-159 70-258 220-262 155-4 211 110 184 270H132c0 116 45 184 161 184zm88-247c1-92-30-137-111-137-89 0-129 46-137 137h248" id="x"/><g id="b"><use transform="matrix(0.022222222222222223,0,0,0.022222222222222223,0,0)" xlink:href="#t"/><use transform="matrix(0.022222222222222223,0,0,0.022222222222222223,17.57777777777778,0)" xlink:href="#r"/><use transform="matrix(0.022222222222222223,0,0,0.022222222222222223,28.6,0)" xlink:href="#q"/><use transform="matrix(0.022222222222222223,0,0,0.022222222222222223,38.62222222222222,0)" xlink:href="#u"/><use transform="matrix(0.022222222222222223,0,0,0.022222222222222223,50.77777777777778,0)" xlink:href="#v"/><use transform="matrix(0.022222222222222223,0,0,0.022222222222222223,56.733333333333334,0)" xlink:href="#w"/><use transform="matrix(0.022222222222222223,0,0,0.022222222222222223,68.88888888888889,0)" xlink:href="#x"/></g><path d="M215-324h-47V0H85v-700h83v326l45-14 235-312h96L310-399l-42 33 51 40L575 0H470" id="y"/><path d="M200 12C109 10 89-39 89-138v-292H11v-70h78v-99l80-23v122h136v70H169v277c1 59 6 93 57 95 38 1 55-9 84-20l18 61c-35 17-77 30-128 29" id="z"/><path d="M104-500c49 140 107 271 148 420h5c31-148 79-280 119-420h81C396-319 339-134 276 44c-20 55-46 106-82 140-28 26-82 25-117 11l14-69c34 12 54 2 79-24 17-20 32-54 43-102L12-500h92" id="A"/><g id="c"><use transform="matrix(0.022222222222222223,0,0,0.022222222222222223,0,0)" xlink:href="#y"/><use transform="matrix(0.022222222222222223,0,0,0.022222222222222223,13.555555555555555,0)" xlink:href="#v"/><use transform="matrix(0.022222222222222223,0,0,0.022222222222222223,19.511111111111113,0)" xlink:href="#z"/><use transform="matrix(0.022222222222222223,0,0,0.022222222222222223,27.044444444444444,0)" xlink:href="#z"/><use transform="matrix(0.022222222222222223,0,0,0.022222222222222223,34.577777777777776,0)" xlink:href="#A"/></g><path d="M537-626H319V0h-83v-626H18v-74h519v74" id="B"/><path d="M152-439c26-60 97-88 178-61l-17 77c-74-29-156 5-156 73V0H77v-500h56l15 61h4" id="C"/><path d="M568-442c-74 2-103 45-118 108V0h-80v-283c0-87-6-159-94-159-65 0-104 47-119 98V0H77v-500h56l15 61h4c37-41 77-74 155-73 72 1 105 26 126 83 28-48 82-81 155-83 130-3 155 82 155 212V0h-80v-301c1-83-12-143-95-141" id="D"/><g id="d"><use transform="matrix(0.022222222222222223,0,0,0.022222222222222223,0,0)" xlink:href="#B"/><use transform="matrix(0.022222222222222223,0,0,0.022222222222222223,9.488888888888889,0)" xlink:href="#x"/><use transform="matrix(0.022222222222222223,0,0,0.022222222222222223,20.77777777777778,0)" xlink:href="#C"/><use transform="matrix(0.022222222222222223,0,0,0.022222222222222223,28.333333333333336,0)" xlink:href="#D"/><use transform="matrix(0.022222222222222223,0,0,0.022222222222222223,46.37777777777778,0)" xlink:href="#v"/><use transform="matrix(0.022222222222222223,0,0,0.022222222222222223,52.333333333333336,0)" xlink:href="#w"/><use transform="matrix(0.022222222222222223,0,0,0.022222222222222223,64.4888888888889,0)" xlink:href="#r"/><use transform="matrix(0.022222222222222223,0,0,0.022222222222222223,75.51111111111112,0)" xlink:href="#s"/></g><path d="M85-700h181v70H163v790h103v70H85v-930" id="E"/><path d="M108-74h140v-484l10-59-40 47-110 79-38-51 220-170h36v638h137V0H108v-74" id="F"/><path d="M220 230H38v-70h104v-790H38v-70h182v930" id="G"/><g id="e"><use transform="matrix(0.022222222222222223,0,0,0.022222222222222223,0,0)" xlink:href="#E"/><use transform="matrix(0.022222222222222223,0,0,0.022222222222222223,6.7555555555555555,0)" xlink:href="#F"/><use transform="matrix(0.022222222222222223,0,0,0.022222222222222223,18.866666666666667,0)" xlink:href="#G"/></g><path d="M74-100c89 50 337 72 327-78-8-132-168-134-251-198-46-36-87-77-87-158 0-190 253-210 408-146l-25 73c-38-17-105-31-168-31-104 0-173 93-107 164 94 102 313 99 313 289C484-48 386 9 246 12 162 13 95-2 46-25" id="H"/><path d="M504-321H168V0H85v-700h83v305h336v-305h83V0h-83v-321" id="I"/><g id="f"><use transform="matrix(0.022222222222222223,0,0,0.022222222222222223,0,0)" xlink:href="#H"/><use transform="matrix(0.022222222222222223,0,0,0.022222222222222223,11.8,0)" xlink:href="#H"/><use transform="matrix(0.022222222222222223,0,0,0.022222222222222223,23.6,0)" xlink:href="#I"/></g><path d="M524-215H406V0h-78v-215H20v-33l332-463h54v426h118v70zm-196-70c2-102-6-213 10-300h-3l-35 68c-63 80-116 170-189 240 64-11 142-8 217-8" id="J"/><g id="g"><use transform="matrix(0.022222222222222223,0,0,0.022222222222222223,0,0)" xlink:href="#E"/><use transform="matrix(0.022222222222222223,0,0,0.022222222222222223,6.7555555555555555,0)" xlink:href="#J"/><use transform="matrix(0.022222222222222223,0,0,0.022222222222222223,18.866666666666667,0)" xlink:href="#G"/></g><path d="M493-515c2 111-71 179-159 201l48 37L556 0h-97L266-302l-98-15V0H85v-693c47-9 123-15 178-15 137 2 227 56 230 193zm-88 3c-1-85-69-132-167-124-24 2-50 2-70 6v258c131 10 239-16 237-140" id="K"/><g id="h"><use transform="matrix(0.022222222222222223,0,0,0.022222222222222223,0,0)" xlink:href="#K"/><use transform="matrix(0.022222222222222223,0,0,0.022222222222222223,12.155555555555557,0)" xlink:href="#x"/><use transform="matrix(0.022222222222222223,0,0,0.022222222222222223,23.444444444444446,0)" xlink:href="#D"/><use transform="matrix(0.022222222222222223,0,0,0.022222222222222223,41.488888888888894,0)" xlink:href="#p"/><use transform="matrix(0.022222222222222223,0,0,0.022222222222222223,53.4,0)" xlink:href="#z"/><use transform="matrix(0.022222222222222223,0,0,0.022222222222222223,60.68888888888889,0)" xlink:href="#x"/></g><path d="M232 12C103 12 68-68 69-198v-302h80v285c0 87 12 158 98 157 78-1 111-51 135-108v-334h80c4 166-10 350 11 500h-55l-20-79h-5c-31 50-80 91-161 91" id="L"/><path d="M208-256L40-500h98c42 64 91 121 123 195 33-74 83-131 126-195h90L308-260 487 0h-95c-46-70-100-132-136-212-37 80-92 142-139 212H28" id="M"/><g id="i"><use transform="matrix(0.022222222222222223,0,0,0.022222222222222223,0,0)" xlink:href="#z"/><use transform="matrix(0.022222222222222223,0,0,0.022222222222222223,7.533333333333333,0)" xlink:href="#D"/><use transform="matrix(0.022222222222222223,0,0,0.022222222222222223,25.577777777777772,0)" xlink:href="#L"/><use transform="matrix(0.022222222222222223,0,0,0.022222222222222223,37.55555555555556,0)" xlink:href="#M"/></g><path d="M98-76c34 13 66 18 115 18 93 0 159-58 159-156 0-100-67-145-167-145l-84 5v-346h312v74H196v199c155-16 256 60 256 208C452-22 266 51 77-8" id="N"/><g id="j"><use transform="matrix(0.022222222222222223,0,0,0.022222222222222223,0,0)" xlink:href="#E"/><use transform="matrix(0.022222222222222223,0,0,0.022222222222222223,6.7555555555555555,0)" xlink:href="#N"/><use transform="matrix(0.022222222222222223,0,0,0.022222222222222223,18.866666666666667,0)" xlink:href="#G"/></g><path d="M85-700h381v74H168v229h273v74H168v249h303V0H85v-700" id="O"/><path d="M63-93c59 36 240 71 234-43-5-91-121-82-179-124-34-24-62-54-62-113 0-97 59-138 155-139 66-1 112 13 154 32l-19 66c-52-26-221-63-210 39 9 83 124 74 178 118 33 27 64 57 63 118-3 103-68 149-174 151C134 13 81-3 39-25" id="P"/><g id="k"><use transform="matrix(0.022222222222222223,0,0,0.022222222222222223,0,0)" xlink:href="#O"/><use transform="matrix(0.022222222222222223,0,0,0.022222222222222223,11.911111111111111,0)" xlink:href="#D"/><use transform="matrix(0.022222222222222223,0,0,0.022222222222222223,29.955555555555556,0)" xlink:href="#r"/><use transform="matrix(0.022222222222222223,0,0,0.022222222222222223,40.977777777777774,0)" xlink:href="#q"/><use transform="matrix(0.022222222222222223,0,0,0.022222222222222223,51,0)" xlink:href="#P"/></g><path d="M291-416c125 0 204 78 201 205-4 136-75 223-213 223C131 12 60-84 60-235c0-203 77-349 202-429 41-26 86-41 134-48l17 64c-154 32-240 146-269 304 24-38 80-72 147-72zM280-58c84 0 129-59 129-145 0-94-42-143-135-143-62 0-115 38-134 78-11 116 31 210 140 210" id="Q"/><g id="l"><use transform="matrix(0.022222222222222223,0,0,0.022222222222222223,0,0)" xlink:href="#E"/><use transform="matrix(0.022222222222222223,0,0,0.022222222222222223,6.7555555555555555,0)" xlink:href="#Q"/><use transform="matrix(0.022222222222222223,0,0,0.022222222222222223,18.866666666666667,0)" xlink:href="#G"/></g><path d="M267-712c112 0 179 61 179 171 0 193-130 309-219 431l-49 43v4c78-19 187-8 282-11V0H62v-29c108-116 222-246 285-410 36-94 12-203-97-203-54 0-105 27-136 51l-33-57c43-37 108-64 186-64" id="R"/><g id="m"><use transform="matrix(0.022222222222222223,0,0,0.022222222222222223,0,0)" xlink:href="#E"/><use transform="matrix(0.022222222222222223,0,0,0.022222222222222223,6.7555555555555555,0)" xlink:href="#R"/><use transform="matrix(0.022222222222222223,0,0,0.022222222222222223,18.866666666666667,0)" xlink:href="#G"/></g><path d="M109-84c32 15 76 27 125 26 95-3 155-52 158-145 4-123-100-148-230-138v-29l144-222 46-44c-74 17-174 8-263 10v-74h357v29L287-432c-11 11-26 18-35 31l34-7c117 7 182 75 186 195C478-16 271 53 88-13" id="S"/><g id="n"><use transform="matrix(0.022222222222222223,0,0,0.022222222222222223,0,0)" xlink:href="#E"/><use transform="matrix(0.022222222222222223,0,0,0.022222222222222223,6.7555555555555555,0)" xlink:href="#S"/><use transform="matrix(0.022222222222222223,0,0,0.022222222222222223,18.866666666666667,0)" xlink:href="#G"/></g></defs></g></svg>